# File created by Blade
# Date/Time:  Wed Jan 21 14:28:11 2015
# Frame Rate: 120.000 fps
#------------------------------------------------------
:FULLY-SPECIFIED
:DEGREES
192
root 18.779396 35.467161 -21.245993 -172.942487 -0.997439 -178.164762
Spine -13.213645 -2.032061 1.866889
Head 5.332220 1.137293 0.920789
LeftShoulder -23.526456 -8.577183 7.219286
LeftArm -43.652377 7.020214 -93.439481
LeftForeArm 18.160959 -0.000000 -0.118975
LeftHand -7.807878 -0.000000 -36.434351
LeftHandThumb1 -26.253704 0.000000 33.147579
RightShoulder -26.867906 -24.170773 7.577066
RightArm -8.199652 -22.624742 84.855380
RightForeArm -36.838022 -0.000000 8.111044
RightHand 2.222482 -0.000000 43.374740
RightHandThumb1 -24.326973 -0.000000 -32.862282
LeftUpLeg 1.287208 9.652606 2.804838
LeftLeg -6.289563 -0.000000 0.000000
LeftFoot -20.709962 27.862775 -11.631841
LeftToeBase 27.628132 -0.000000 -0.000000
RightUpLeg -1.230254 -11.851576 0.116905
RightLeg -2.204209 -0.000000 0.000000
RightFoot -20.313051 -20.714686 16.360125
RightToeBase 25.533061 -0.000000 -0.000000
193
root 18.775183 35.469107 -21.262032 -172.900369 -0.870194 -178.164531
Spine -13.313277 -2.015406 1.898197
Head 5.417836 1.189884 0.922084
LeftShoulder -23.719626 -8.379991 7.537442
LeftArm -44.066791 6.054211 -92.716769
LeftForeArm 19.357291 0.000000 -0.418337
LeftHand -7.827643 -0.000000 -36.476229
LeftHandThumb1 -26.253704 0.000000 33.147579
RightShoulder -27.122743 -24.269324 7.231738
RightArm -8.697497 -21.785119 84.677736
RightForeArm -37.488674 -0.000000 8.045481
RightHand 2.108419 -0.000000 43.779765
RightHandThumb1 -24.326973 -0.000000 -32.862282
LeftUpLeg 1.311501 9.639310 2.791197
LeftLeg -6.312488 -0.000000 0.000000
LeftFoot -20.746925 27.944611 -11.738846
LeftToeBase 27.602570 -0.000000 -0.000000
RightUpLeg -1.266020 -11.837092 0.104573
RightLeg -2.195402 -0.000000 0.000000
RightFoot -20.296606 -20.622639 16.302103
RightToeBase 25.776102 -0.000000 -0.000000
194
root 18.772634 35.470834 -21.280245 -172.873470 -0.721010 -178.156301
Spine -13.397773 -1.986341 1.923950
Head 5.513007 1.255347 0.958843
LeftShoulder -23.901759 -8.139024 7.777978
LeftArm -44.476337 5.365725 -92.151988
LeftForeArm 20.284939 -0.000000 -0.742387
LeftHand -7.732748 -0.000000 -36.580182
LeftHandThumb1 -26.253704 0.000000 33.147579
RightShoulder -27.329711 -24.451583 6.948911
RightArm -9.133149 -21.054559 84.453263
RightForeArm -37.949592 0.000000 7.967863
RightHand 2.089462 -0.000000 44.136840
RightHandThumb1 -24.326973 -0.000000 -32.862282
LeftUpLeg 1.345260 9.749586 2.783246
LeftLeg -6.320642 -0.000000 0.000000
LeftFoot -20.773337 27.951717 -11.820368
LeftToeBase 27.487469 -0.000000 -0.000000
RightUpLeg -1.281722 -11.775920 0.098463
RightLeg -2.197561 -0.000000 0.000000
RightFoot -20.267708 -20.552048 16.317871
RightToeBase 25.785853 -0.000000 -0.000000
195
root 18.770718 35.472955 -21.300272 -172.824445 -0.554102 -178.140125
Spine -13.491652 -1.906397 1.949157
Head 5.536736 1.284200 0.993272
LeftShoulder -24.123976 -7.899437 7.971723
LeftArm -44.941676 4.969570 -91.673865
LeftForeArm 20.959700 -0.000000 -0.976762
LeftHand -7.777805 -0.000000 -36.808819
LeftHandThumb1 -26.253704 0.000000 33.147579
RightShoulder -27.585390 -24.633228 6.694495
RightArm -9.585831 -20.327888 84.181563
RightForeArm -38.374866 -0.000000 7.962932
RightHand 2.012403 -0.000000 44.473037
RightHandThumb1 -24.326973 -0.000000 -32.862282
LeftUpLeg 1.369852 9.860714 2.777240
LeftLeg -6.341619 -0.000000 0.000000
LeftFoot -20.810917 27.980095 -11.912223
LeftToeBase 27.470712 -0.000000 -0.000000
RightUpLeg -1.327918 -11.717581 0.103194
RightLeg -2.186379 -0.000000 0.000000
RightFoot -20.251031 -20.428899 16.393525
RightToeBase 25.766908 -0.000000 -0.000000
196
root 18.766424 35.473600 -21.321750 -172.837919 -0.406969 -178.147774
Spine -13.516699 -1.878375 1.954607
Head 5.595239 1.344961 1.025174
LeftShoulder -24.329450 -7.665227 8.160887
LeftArm -45.455455 4.464012 -91.011397
LeftForeArm 21.403211 -0.000000 -1.155734
LeftHand -7.643990 0.000000 -36.869061
LeftHandThumb1 -26.253704 0.000000 33.147579
RightShoulder -27.711893 -24.838010 6.369822
RightArm -9.996380 -19.335116 83.941476
RightForeArm -39.082804 0.000000 7.859563
RightHand 2.020589 -0.000000 44.787416
RightHandThumb1 -24.326973 -0.000000 -32.862282
LeftUpLeg 1.450768 9.939633 2.757471
LeftLeg -6.351011 -0.000000 0.000000
LeftFoot -20.862369 28.011917 -12.014565
LeftToeBase 27.417668 -0.000000 -0.000000
RightUpLeg -1.293527 -11.675811 0.067931
RightLeg -2.194713 -0.000000 0.000000
RightFoot -20.237563 -20.348424 16.399310
RightToeBase 25.746052 -0.000000 -0.000000
197
root 18.762341 35.474979 -21.339862 -172.817516 -0.237813 -178.147827
Spine -13.565420 -1.829543 1.962255
Head 5.613980 1.426280 1.073019
LeftShoulder -24.618224 -7.399659 8.287476
LeftArm -45.947068 4.057528 -90.239803
LeftForeArm 21.677965 -0.000000 -1.294973
LeftHand -7.664161 0.000000 -37.185534
LeftHandThumb1 -26.253704 0.000000 33.147579
RightShoulder -27.850191 -25.066287 6.097055
RightArm -10.412145 -18.524899 83.682328
RightForeArm -39.657090 -0.000000 7.880076
RightHand 1.878457 -0.000000 45.172887
RightHandThumb1 -24.326973 -0.000000 -32.862282
LeftUpLeg 1.479038 10.043154 2.737313
LeftLeg -6.329939 -0.000000 0.000000
LeftFoot -20.911212 28.037078 -12.113337
LeftToeBase 27.320820 -0.000000 -0.000000
RightUpLeg -1.304433 -11.586429 0.046222
RightLeg -2.198140 -0.000000 0.000000
RightFoot -20.210382 -20.268531 16.424076
RightToeBase 25.769065 -0.000000 -0.000000
198
root 18.760396 35.475119 -21.358888 -172.797812 -0.074644 -178.143588
Spine -13.613317 -1.797012 1.964089
Head 5.627637 1.514310 1.135190
LeftShoulder -24.927355 -7.124438 8.442327
LeftArm -46.456433 3.537600 -89.272032
LeftForeArm 21.914239 -0.000000 -1.417905
LeftHand -7.763566 0.000000 -37.405548
LeftHandThumb1 -26.253704 0.000000 33.147579
RightShoulder -28.028928 -25.398391 5.853219
RightArm -10.686131 -18.058192 83.460756
RightForeArm -40.006084 0.000000 7.809447
RightHand 1.809707 -0.000000 45.431844
RightHandThumb1 -24.326973 -0.000000 -32.862282
LeftUpLeg 1.514273 10.111413 2.730782
LeftLeg -6.308280 -0.000000 0.000000
LeftFoot -20.983484 28.068020 -12.196299
LeftToeBase 27.293640 -0.000000 -0.000000
RightUpLeg -1.310879 -11.501093 0.034719
RightLeg -2.204759 -0.000000 0.000000
RightFoot -20.193334 -20.194977 16.444207
RightToeBase 25.715394 -0.000000 -0.000000
199
root 18.759289 35.474079 -21.379956 -172.798121 0.087231 -178.139238
Spine -13.628774 -1.708460 1.946794
Head 5.602779 1.536661 1.200651
LeftShoulder -25.204872 -6.807146 8.559728
LeftArm -47.016074 3.329711 -88.560212
LeftForeArm 21.939260 -0.000000 -1.354275
LeftHand -7.845914 0.000000 -37.700034
LeftHandThumb1 -26.253704 0.000000 33.147579
RightShoulder -28.115546 -25.627412 5.579760
RightArm -11.154992 -17.308899 83.227491
RightForeArm -40.239225 0.000000 7.818957
RightHand 1.699426 -0.000000 45.778160
RightHandThumb1 -24.326973 -0.000000 -32.862282
LeftUpLeg 1.571151 10.180934 2.728701
LeftLeg -6.286721 -0.000000 0.000000
LeftFoot -21.064013 28.107236 -12.277300
LeftToeBase 27.273679 -0.000000 -0.000000
RightUpLeg -1.291519 -11.423152 0.018135
RightLeg -2.215467 -0.000000 0.000000
RightFoot -20.188402 -20.140281 16.427485
RightToeBase 25.737398 -0.000000 -0.000000
200
root 18.757423 35.472813 -21.400717 -172.809808 0.273888 -178.139343
Spine -13.624263 -1.563420 1.916168
Head 5.563253 1.536174 1.243860
LeftShoulder -25.446577 -6.481845 8.650226
LeftArm -47.568287 3.174254 -87.922252
LeftForeArm 22.125853 -0.000000 -1.346775
LeftHand -7.772724 0.000000 -37.955150
LeftHandThumb1 -26.253704 0.000000 33.147579
RightShoulder -28.236874 -25.875798 5.323695
RightArm -11.584836 -16.733341 83.083372
RightForeArm -40.834417 -0.000000 7.763454
RightHand 1.759723 -0.000000 45.915505
RightHandThumb1 -24.326973 -0.000000 -32.862282
LeftUpLeg 1.655992 10.273852 2.719169
LeftLeg -6.294121 -0.000000 0.000000
LeftFoot -21.120599 28.157904 -12.353120
LeftToeBase 27.211724 -0.000000 -0.000000
RightUpLeg -1.268273 -11.306270 -0.009774
RightLeg -2.218108 -0.000000 0.000000
RightFoot -20.168195 -20.054759 16.494829
RightToeBase 25.568805 -0.000000 -0.000000
201
root 18.754519 35.471666 -21.419170 -172.824937 0.437869 -178.150844
Spine -13.622824 -1.438353 1.880935
Head 5.550145 1.525078 1.260921
LeftShoulder -25.643354 -6.077568 8.715355
LeftArm -48.035743 2.931966 -87.161715
LeftForeArm 22.447009 -0.000000 -1.339406
LeftHand -7.603493 -0.000000 -38.162723
LeftHandThumb1 -26.253704 0.000000 33.147579
RightShoulder -28.330674 -26.208361 5.095727
RightArm -11.912239 -16.231152 82.968558
RightForeArm -41.373813 0.000000 7.609006
RightHand 1.689947 -0.000000 45.926355
RightHandThumb1 -24.326973 -0.000000 -32.862282
LeftUpLeg 1.757001 10.239432 2.701012
LeftLeg -6.339026 -0.000000 0.000000
LeftFoot -21.164872 28.301398 -12.448138
LeftToeBase 27.175189 -0.000000 -0.000000
RightUpLeg -1.248319 -11.197457 -0.046828
RightLeg -2.207512 -0.000000 0.000000
RightFoot -20.192609 -20.063024 16.396666
RightToeBase 25.732648 -0.000000 -0.000000
202
root 18.753976 35.470171 -21.441575 -172.847220 0.584900 -178.140547
Spine -13.611025 -1.370157 1.876108
Head 5.500834 1.583061 1.248374
LeftShoulder -25.920097 -5.668111 8.802222
LeftArm -48.549671 2.941577 -86.648196
LeftForeArm 22.214212 0.000000 -1.241987
LeftHand -7.770334 -0.000000 -38.600901
LeftHandThumb1 -26.253704 0.000000 33.147579
RightShoulder -28.364345 -26.538566 4.878043
RightArm -12.305857 -15.729770 82.819028
RightForeArm -41.799050 -0.000000 7.664713
RightHand 1.553656 -0.000000 46.182819
RightHandThumb1 -24.326973 -0.000000 -32.862282
LeftUpLeg 1.819515 10.332659 2.706154
LeftLeg -6.292840 -0.000000 0.000000
LeftFoot -21.255524 28.337328 -12.494608
LeftToeBase 27.160465 -0.000000 -0.000000
RightUpLeg -1.201102 -11.122688 -0.060708
RightLeg -2.219438 -0.000000 0.000000
RightFoot -20.199455 -19.999716 16.393384
RightToeBase 25.785538 -0.000000 -0.000000
203
root 18.752305 35.468486 -21.463740 -172.903572 0.708681 -178.145019
Spine -13.555522 -1.280245 1.858044
Head 5.447523 1.614742 1.196878
LeftShoulder -26.117677 -5.284828 8.884562
LeftArm -49.039622 3.026650 -86.226630
LeftForeArm 22.056390 -0.000000 -1.230352
LeftHand -7.836283 -0.000000 -38.844384
LeftHandThumb1 -26.253704 0.000000 33.147579
RightShoulder -28.487631 -26.938771 4.725634
RightArm -12.563951 -15.384416 82.687442
RightForeArm -42.353369 -0.000000 7.621590
RightHand 1.426620 -0.000000 46.358083
RightHandThumb1 -24.326973 -0.000000 -32.862282
LeftUpLeg 1.936620 10.316681 2.707741
LeftLeg -6.287116 -0.000000 0.000000
LeftFoot -21.321622 28.438815 -12.563971
LeftToeBase 27.083699 -0.000000 -0.000000
RightUpLeg -1.118890 -11.059560 -0.096215
RightLeg -2.226723 -0.000000 0.000000
RightFoot -20.203262 -19.947702 16.384397
RightToeBase 25.787217 -0.000000 -0.000000
